<mxfile host="app.diagrams.net" modified="2023-11-30T09:01:38.915Z" agent="Mozilla/5.0 (Windows NT 10.0; Win64; x64) AppleWebKit/537.36 (KHTML, like Gecko) Chrome/119.0.0.0 Safari/537.36" etag="jT91KUMQWnRnvTNWKRL_" version="22.1.5" type="github">
  <diagram name="Page-1" id="ypgOx1mekBI13VPZVj5W">
    <mxGraphModel dx="1434" dy="758" grid="1" gridSize="10" guides="1" tooltips="1" connect="1" arrows="1" fold="1" page="1" pageScale="1" pageWidth="827" pageHeight="1169" math="0" shadow="0">
      <root>
        <mxCell id="0" />
        <mxCell id="1" parent="0" />
        <mxCell id="_VJCEfO5BTkLSHKS3nnu-10" style="edgeStyle=orthogonalEdgeStyle;rounded=0;orthogonalLoop=1;jettySize=auto;html=1;exitX=0.5;exitY=1;exitDx=0;exitDy=0;entryX=0.5;entryY=0;entryDx=0;entryDy=0;" edge="1" parent="1" source="_VJCEfO5BTkLSHKS3nnu-1" target="_VJCEfO5BTkLSHKS3nnu-2">
          <mxGeometry relative="1" as="geometry" />
        </mxCell>
        <mxCell id="_VJCEfO5BTkLSHKS3nnu-1" value="debut" style="rounded=1;whiteSpace=wrap;html=1;" vertex="1" parent="1">
          <mxGeometry x="220" y="90" width="120" height="60" as="geometry" />
        </mxCell>
        <mxCell id="_VJCEfO5BTkLSHKS3nnu-11" style="edgeStyle=orthogonalEdgeStyle;rounded=0;orthogonalLoop=1;jettySize=auto;html=1;exitX=0.5;exitY=1;exitDx=0;exitDy=0;entryX=0.5;entryY=0;entryDx=0;entryDy=0;" edge="1" parent="1" source="_VJCEfO5BTkLSHKS3nnu-2" target="_VJCEfO5BTkLSHKS3nnu-3">
          <mxGeometry relative="1" as="geometry" />
        </mxCell>
        <mxCell id="_VJCEfO5BTkLSHKS3nnu-2" value="&lt;p style=&quot;box-sizing: border-box; margin-top: 0px; margin-bottom: 1rem; color: rgb(10, 35, 69); font-family: Quicksand, sans-serif; font-size: 15px; text-align: left; background-color: rgb(255, 255, 255);&quot; id=&quot;yui_3_17_2_1_1701334009338_42&quot; class=&quot;western&quot;&gt;- Aller à droite&lt;/p&gt;&lt;div&gt;&lt;br&gt;&lt;/div&gt;" style="rounded=0;whiteSpace=wrap;html=1;" vertex="1" parent="1">
          <mxGeometry x="220" y="190" width="120" height="60" as="geometry" />
        </mxCell>
        <mxCell id="_VJCEfO5BTkLSHKS3nnu-12" style="edgeStyle=orthogonalEdgeStyle;rounded=0;orthogonalLoop=1;jettySize=auto;html=1;exitX=0.5;exitY=1;exitDx=0;exitDy=0;entryX=0.5;entryY=0;entryDx=0;entryDy=0;" edge="1" parent="1" source="_VJCEfO5BTkLSHKS3nnu-3" target="_VJCEfO5BTkLSHKS3nnu-4">
          <mxGeometry relative="1" as="geometry" />
        </mxCell>
        <mxCell id="_VJCEfO5BTkLSHKS3nnu-3" value="&lt;p style=&quot;box-sizing: border-box; margin-top: 0px; margin-bottom: 1rem; color: rgb(10, 35, 69); font-family: Quicksand, sans-serif; font-size: 15px; text-align: left; background-color: rgb(255, 255, 255);&quot; id=&quot;yui_3_17_2_1_1701334009338_43&quot; class=&quot;western&quot;&gt;- Aller en bas&lt;/p&gt;&lt;div&gt;&lt;br&gt;&lt;/div&gt;" style="rounded=0;whiteSpace=wrap;html=1;" vertex="1" parent="1">
          <mxGeometry x="220" y="360" width="120" height="70" as="geometry" />
        </mxCell>
        <mxCell id="_VJCEfO5BTkLSHKS3nnu-4" value="&lt;p style=&quot;box-sizing: border-box; margin-top: 0px; margin-bottom: 1rem; color: rgb(10, 35, 69); font-family: Quicksand, sans-serif; font-size: 15px; text-align: left; background-color: rgb(255, 255, 255);&quot; id=&quot;yui_3_17_2_1_1701334009338_43&quot; class=&quot;western&quot;&gt;- Aller en bas&lt;/p&gt;&lt;div&gt;&lt;br&gt;&lt;/div&gt;" style="rounded=0;whiteSpace=wrap;html=1;" vertex="1" parent="1">
          <mxGeometry x="220" y="490" width="120" height="60" as="geometry" />
        </mxCell>
        <mxCell id="_VJCEfO5BTkLSHKS3nnu-17" style="edgeStyle=orthogonalEdgeStyle;rounded=0;orthogonalLoop=1;jettySize=auto;html=1;exitX=0.5;exitY=0;exitDx=0;exitDy=0;entryX=0.5;entryY=1;entryDx=0;entryDy=0;" edge="1" parent="1" source="_VJCEfO5BTkLSHKS3nnu-5" target="_VJCEfO5BTkLSHKS3nnu-6">
          <mxGeometry relative="1" as="geometry" />
        </mxCell>
        <mxCell id="_VJCEfO5BTkLSHKS3nnu-5" value="Sauter" style="rounded=0;whiteSpace=wrap;html=1;" vertex="1" parent="1">
          <mxGeometry x="660" y="490" width="120" height="60" as="geometry" />
        </mxCell>
        <mxCell id="_VJCEfO5BTkLSHKS3nnu-20" style="edgeStyle=orthogonalEdgeStyle;rounded=0;orthogonalLoop=1;jettySize=auto;html=1;exitX=0.5;exitY=0;exitDx=0;exitDy=0;entryX=0.5;entryY=1;entryDx=0;entryDy=0;" edge="1" parent="1" source="_VJCEfO5BTkLSHKS3nnu-6" target="_VJCEfO5BTkLSHKS3nnu-18">
          <mxGeometry relative="1" as="geometry" />
        </mxCell>
        <mxCell id="_VJCEfO5BTkLSHKS3nnu-6" value="&lt;p style=&quot;box-sizing: border-box; margin-top: 0px; margin-bottom: 1rem; color: rgb(10, 35, 69); font-family: Quicksand, sans-serif; font-size: 15px; text-align: left; background-color: rgb(255, 255, 255);&quot; id=&quot;yui_3_17_2_1_1701334009338_45&quot; class=&quot;western&quot;&gt;- Aller à gauche&lt;/p&gt;&lt;div&gt;&lt;br&gt;&lt;/div&gt;" style="rounded=0;whiteSpace=wrap;html=1;" vertex="1" parent="1">
          <mxGeometry x="660" y="340" width="120" height="60" as="geometry" />
        </mxCell>
        <mxCell id="_VJCEfO5BTkLSHKS3nnu-15" style="edgeStyle=orthogonalEdgeStyle;rounded=0;orthogonalLoop=1;jettySize=auto;html=1;exitX=1;exitY=0.5;exitDx=0;exitDy=0;" edge="1" parent="1" source="_VJCEfO5BTkLSHKS3nnu-7" target="_VJCEfO5BTkLSHKS3nnu-9">
          <mxGeometry relative="1" as="geometry" />
        </mxCell>
        <mxCell id="_VJCEfO5BTkLSHKS3nnu-7" value="&lt;p style=&quot;box-sizing: border-box; margin-top: 0px; margin-bottom: 1rem; color: rgb(10, 35, 69); font-family: Quicksand, sans-serif; font-size: 15px; text-align: left; background-color: rgb(255, 255, 255);&quot; id=&quot;yui_3_17_2_1_1701334009338_42&quot; class=&quot;western&quot;&gt;- Aller à droite&lt;/p&gt;&lt;div&gt;&lt;br&gt;&lt;/div&gt;" style="rounded=0;whiteSpace=wrap;html=1;" vertex="1" parent="1">
          <mxGeometry x="460" y="620" width="120" height="60" as="geometry" />
        </mxCell>
        <mxCell id="_VJCEfO5BTkLSHKS3nnu-14" style="edgeStyle=orthogonalEdgeStyle;rounded=0;orthogonalLoop=1;jettySize=auto;html=1;exitX=1;exitY=0.5;exitDx=0;exitDy=0;entryX=0;entryY=0.5;entryDx=0;entryDy=0;" edge="1" parent="1" source="_VJCEfO5BTkLSHKS3nnu-8" target="_VJCEfO5BTkLSHKS3nnu-7">
          <mxGeometry relative="1" as="geometry" />
        </mxCell>
        <mxCell id="_VJCEfO5BTkLSHKS3nnu-8" value="&lt;p style=&quot;box-sizing: border-box; margin-top: 0px; margin-bottom: 1rem; color: rgb(10, 35, 69); font-family: Quicksand, sans-serif; font-size: 15px; text-align: left; background-color: rgb(255, 255, 255);&quot; id=&quot;yui_3_17_2_1_1701334009338_42&quot; class=&quot;western&quot;&gt;- Aller à droite&lt;/p&gt;&lt;div&gt;&lt;br&gt;&lt;/div&gt;" style="rounded=0;whiteSpace=wrap;html=1;" vertex="1" parent="1">
          <mxGeometry x="220" y="620" width="120" height="60" as="geometry" />
        </mxCell>
        <mxCell id="_VJCEfO5BTkLSHKS3nnu-16" style="edgeStyle=orthogonalEdgeStyle;rounded=0;orthogonalLoop=1;jettySize=auto;html=1;exitX=0.5;exitY=0;exitDx=0;exitDy=0;entryX=0.5;entryY=1;entryDx=0;entryDy=0;" edge="1" parent="1" source="_VJCEfO5BTkLSHKS3nnu-9" target="_VJCEfO5BTkLSHKS3nnu-5">
          <mxGeometry relative="1" as="geometry">
            <mxPoint x="720" y="560" as="targetPoint" />
          </mxGeometry>
        </mxCell>
        <mxCell id="_VJCEfO5BTkLSHKS3nnu-9" value="&lt;p style=&quot;box-sizing: border-box; margin-top: 0px; margin-bottom: 1rem; color: rgb(10, 35, 69); font-family: Quicksand, sans-serif; font-size: 15px; text-align: left; background-color: rgb(255, 255, 255);&quot; id=&quot;yui_3_17_2_1_1701334009338_43&quot; class=&quot;western&quot;&gt;- Aller en bas&lt;/p&gt;&lt;div&gt;&lt;br&gt;&lt;/div&gt;" style="rounded=0;whiteSpace=wrap;html=1;" vertex="1" parent="1">
          <mxGeometry x="660" y="620" width="120" height="60" as="geometry" />
        </mxCell>
        <mxCell id="_VJCEfO5BTkLSHKS3nnu-13" style="edgeStyle=orthogonalEdgeStyle;rounded=0;orthogonalLoop=1;jettySize=auto;html=1;exitX=0.5;exitY=1;exitDx=0;exitDy=0;entryX=0.483;entryY=-0.1;entryDx=0;entryDy=0;entryPerimeter=0;" edge="1" parent="1" source="_VJCEfO5BTkLSHKS3nnu-4" target="_VJCEfO5BTkLSHKS3nnu-8">
          <mxGeometry relative="1" as="geometry" />
        </mxCell>
        <mxCell id="_VJCEfO5BTkLSHKS3nnu-18" value="fin" style="rounded=1;whiteSpace=wrap;html=1;" vertex="1" parent="1">
          <mxGeometry x="660" y="90" width="120" height="60" as="geometry" />
        </mxCell>
      </root>
    </mxGraphModel>
  </diagram>
</mxfile>
